<svg width="128" height="128" viewBox="0 0 128 128" fill="none" xmlns="http://www.w3.org/2000/svg">
<rect width="128" height="128" rx="25" fill="#09090B"/>
<path d="M104 26.6667C104 25.1939 102.806 24 101.333 24H80C78.5272 24 77.3193 25.1974 77.4646 26.6629C78.714 39.2644 88.7356 49.286 101.337 50.5354C102.803 50.6807 104 49.4728 104 48V26.6667Z" fill="white"/>
<path d="M24 101.333C24 102.806 25.1939 104 26.6667 104H48C49.4728 104 50.6807 102.803 50.5354 101.337C49.286 88.7356 39.2644 78.714 26.6629 77.4646C25.1974 77.3193 24 78.5272 24 80V101.333Z" fill="white"/>
<path d="M78.1144 51.4477C77.6143 50.9476 76.936 50.6667 76.2288 50.6667H53.3333C51.8606 50.6667 50.6667 49.4728 50.6667 48V26.6667C50.6667 25.1939 49.4728 24 48 24H26.6667C25.1939 24 24 25.1939 24 26.6667V49.5621C24 50.2693 24.281 50.9476 24.781 51.4477L49.8856 76.5523C50.3857 77.0524 51.064 77.3333 51.7712 77.3333H74.6667C76.1394 77.3333 77.3333 78.5272 77.3333 80V101.333C77.3333 102.806 78.5272 104 80 104H101.333C102.806 104 104 102.806 104 101.333V78.4379C104 77.7307 103.719 77.0524 103.219 76.5523L78.1144 51.4477Z" fill="white"/>
</svg>
